<svg width="36" height="28" viewBox="0 0 36 28" fill="none" xmlns="http://www.w3.org/2000/svg">
<mask id="path-1-outside-1_47_1860" maskUnits="userSpaceOnUse" x="-1" y="-0.5" width="38" height="30" fill="black">
<rect fill="white" x="-1" y="-0.5" width="38" height="30"/>
<path d="M0.548 14.396C0.548 6.224 4.94 0.679998 11.672 0.679998C18.404 0.679998 22.832 6.224 22.832 14.396C22.832 22.532 18.656 27.968 11.672 27.968C4.688 27.968 0.548 22.532 0.548 14.396ZM5.084 14.396C5.084 20.48 7.532 23.9 11.672 23.9C15.848 23.9 18.296 20.48 18.296 14.396C18.296 8.168 15.848 4.748 11.672 4.748C7.532 4.748 5.084 8.168 5.084 14.396ZM31.3668 5.324H25.6068V1.184H35.7948V27.5H31.3668V5.324Z"/>
</mask>
<path d="M1.548 14.396C1.548 10.4805 2.60036 7.29035 4.36423 5.10085C6.11245 2.93079 8.60627 1.68 11.672 1.68V-0.320003C8.00573 -0.320003 4.93755 1.20121 2.80677 3.84614C0.691638 6.47165 -0.452 10.1395 -0.452 14.396H1.548ZM11.672 1.68C14.7383 1.68 17.2418 2.9313 18.9992 5.10261C20.7716 7.29258 21.832 10.4824 21.832 14.396H23.832C23.832 10.1376 22.6784 6.46942 20.5538 3.84438C18.4142 1.20069 15.3377 -0.320003 11.672 -0.320003V1.68ZM21.832 14.396C21.832 18.304 20.8285 21.4537 19.0927 23.6051C17.3765 25.7323 14.8795 26.968 11.672 26.968V28.968C15.4485 28.968 18.5315 27.4857 20.6493 24.8609C22.7475 22.2603 23.832 18.624 23.832 14.396H21.832ZM11.672 26.968C8.46502 26.968 5.97785 25.7327 4.27072 23.6069C2.54349 21.456 1.548 18.3059 1.548 14.396H-0.452C-0.452 18.6221 0.622514 22.258 2.71129 24.8591C4.82015 27.4853 7.89498 28.968 11.672 28.968V26.968ZM4.084 14.396C4.084 17.5512 4.71554 20.1569 6.00595 22.0025C7.32854 23.8942 9.2861 24.9 11.672 24.9V22.9C9.9179 22.9 8.58146 22.1958 7.64505 20.8565C6.67646 19.4711 6.084 17.3248 6.084 14.396H4.084ZM11.672 24.9C14.0728 24.9 16.0399 23.8967 17.3685 22.004C18.6645 20.1577 19.296 17.551 19.296 14.396H17.296C17.296 17.325 16.7035 19.4703 15.7315 20.855C14.7921 22.1933 13.4472 22.9 11.672 22.9V24.9ZM19.296 14.396C19.296 11.1731 18.6661 8.53113 17.3715 6.66623C16.0429 4.7525 14.074 3.748 11.672 3.748V5.748C13.446 5.748 14.7891 6.4535 15.7285 7.80677C16.7019 9.20887 17.296 11.3909 17.296 14.396H19.296ZM11.672 3.748C9.2849 3.748 7.32553 4.75507 6.00298 6.66776C4.71397 8.53195 4.084 11.1729 4.084 14.396H6.084C6.084 11.3911 6.67803 9.20805 7.64802 7.80524C8.58447 6.45093 9.9191 5.748 11.672 5.748V3.748ZM31.3668 5.324H32.3668V4.324H31.3668V5.324ZM25.6068 5.324H24.6068V6.324H25.6068V5.324ZM25.6068 1.184V0.184H24.6068V1.184H25.6068ZM35.7948 1.184H36.7948V0.184H35.7948V1.184ZM35.7948 27.5V28.5H36.7948V27.5H35.7948ZM31.3668 27.5H30.3668V28.5H31.3668V27.5ZM31.3668 4.324H25.6068V6.324H31.3668V4.324ZM26.6068 5.324V1.184H24.6068V5.324H26.6068ZM25.6068 2.184H35.7948V0.184H25.6068V2.184ZM34.7948 1.184V27.5H36.7948V1.184H34.7948ZM35.7948 26.5H31.3668V28.5H35.7948V26.5ZM32.3668 27.5V5.324H30.3668V27.5H32.3668Z" fill="white" mask="url(#path-1-outside-1_47_1860)"/>
</svg>
