<svg width="44" height="28" viewBox="0 0 44 28" fill="none" xmlns="http://www.w3.org/2000/svg">
<mask id="path-1-outside-1_112_408" maskUnits="userSpaceOnUse" x="-1" y="-1" width="46" height="30" fill="black">
<rect fill="white" x="-1" y="-1" width="46" height="30"/>
<path d="M0.764 14.004C0.764 5.94 4.94 0.467998 11.492 0.467998C18.008 0.467998 22.184 5.94 22.184 14.004C22.184 22.104 18.188 27.468 11.492 27.468C4.76 27.468 0.764 22.104 0.764 14.004ZM4.256 14.004C4.256 20.412 6.92 24.3 11.492 24.3C16.064 24.3 18.692 20.412 18.692 14.004C18.692 7.524 16.064 3.636 11.492 3.636C6.92 3.636 4.256 7.524 4.256 14.004ZM43.1849 26.964L25.6169 27V24.3L34.0049 17.064C38.2169 13.428 39.4049 11.664 39.4049 8.892C39.4049 5.616 37.5329 3.672 34.4009 3.672C31.1969 3.672 29.1089 6.012 29.0369 9.72H25.5089C25.6169 4.14 29.1449 0.503998 34.4369 0.503998C39.6569 0.503998 43.0049 3.672 43.0049 8.676C43.0049 12.384 41.1689 15.012 36.5609 19.008L31.1609 23.688H43.1849V26.964Z"/>
</mask>
<path d="M1.764 14.004C1.764 10.1342 2.76665 6.98603 4.45794 4.82903C6.13142 2.69473 8.52329 1.468 11.492 1.468V-0.532002C7.90871 -0.532002 4.93658 0.977267 2.88406 3.59497C0.849347 6.18997 -0.236 9.80977 -0.236 14.004H1.764ZM11.492 1.468C14.4409 1.468 16.824 2.69326 18.4938 4.82811C20.1813 6.9855 21.184 10.1343 21.184 14.004H23.184C23.184 9.80973 22.0987 6.19049 20.0692 3.59589C18.022 0.978738 15.0591 -0.532002 11.492 -0.532002V1.468ZM21.184 14.004C21.184 17.9023 20.2213 21.0295 18.5605 23.1584C16.9214 25.2596 14.544 26.468 11.492 26.468V28.468C15.136 28.468 18.1046 26.9944 20.1375 24.3886C22.1487 21.8105 23.184 18.2057 23.184 14.004H21.184ZM11.492 26.468C8.42021 26.468 6.03406 25.2582 4.39123 23.1575C2.72671 21.029 1.764 17.9024 1.764 14.004H-0.236C-0.236 18.2056 0.799293 21.811 2.81577 24.3895C4.85394 26.9958 7.83179 28.468 11.492 28.468V26.468ZM3.256 14.004C3.256 17.3273 3.94394 20.1279 5.33949 22.1273C6.76473 24.1693 8.88044 25.3 11.492 25.3V23.3C9.53156 23.3 8.02927 22.4867 6.97951 20.9827C5.90006 19.4361 5.256 17.0887 5.256 14.004H3.256ZM11.492 25.3C14.1045 25.3 16.2123 24.1684 17.6285 22.1245C19.014 20.1248 19.692 17.3248 19.692 14.004H17.692C17.692 17.0912 17.056 19.4392 15.9845 20.9855C14.9437 22.4876 13.4515 23.3 11.492 23.3V25.3ZM19.692 14.004C19.692 10.6492 19.0148 7.83142 17.6298 5.82241C16.2137 3.76822 14.1051 2.636 11.492 2.636V4.636C13.4509 4.636 14.9423 5.44777 15.9832 6.95759C17.0552 8.51258 17.692 10.8788 17.692 14.004H19.692ZM11.492 2.636C8.8799 2.636 6.76338 3.76724 5.33813 5.8196C3.94315 7.82837 3.256 10.6467 3.256 14.004H5.256C5.256 10.8813 5.90085 8.51563 6.98087 6.96039C8.03062 5.44876 9.5321 4.636 11.492 4.636V2.636ZM43.1849 26.964L43.187 27.964L44.1849 27.962V26.964H43.1849ZM25.6169 27H24.6169V28.0021L25.619 28L25.6169 27ZM25.6169 24.3L24.9637 23.5428L24.6169 23.842V24.3H25.6169ZM34.0049 17.064L34.6581 17.8212L34.6584 17.821L34.0049 17.064ZM29.0369 9.72V10.72H30.0177L30.0367 9.73941L29.0369 9.72ZM25.5089 9.72L24.5091 9.70065L24.4894 10.72H25.5089V9.72ZM36.5609 19.008L37.2159 19.7637L37.2161 19.7635L36.5609 19.008ZM31.1609 23.688L30.506 22.9323L28.4802 24.688H31.1609V23.688ZM43.1849 23.688H44.1849V22.688H43.1849V23.688ZM43.1829 25.964L25.6149 26L25.619 28L43.187 27.964L43.1829 25.964ZM26.6169 27V24.3H24.6169V27H26.6169ZM26.2701 25.0572L34.6581 17.8212L33.3517 16.3068L24.9637 23.5428L26.2701 25.0572ZM34.6584 17.821C36.7706 15.9976 38.2127 14.5718 39.1179 13.2066C40.0583 11.7883 40.4049 10.4591 40.4049 8.892H38.4049C38.4049 10.0969 38.1576 11.0357 37.451 12.1014C36.7092 13.2202 35.4512 14.4944 33.3515 16.307L34.6584 17.821ZM40.4049 8.892C40.4049 7.06669 39.8808 5.48825 38.7989 4.36104C37.7119 3.22856 36.1775 2.672 34.4009 2.672V4.672C35.7564 4.672 36.7239 5.08743 37.356 5.74596C37.9931 6.40974 38.4049 7.44131 38.4049 8.892H40.4049ZM34.4009 2.672C32.5393 2.672 30.9348 3.36045 29.7969 4.64134C28.6713 5.90829 28.0766 7.66879 28.0371 9.70059L30.0367 9.73941C30.0693 8.06321 30.5546 6.79971 31.292 5.96966C32.0171 5.15355 33.0585 4.672 34.4009 4.672V2.672ZM29.0369 8.72H25.5089V10.72H29.0369V8.72ZM26.5088 9.73935C26.5587 7.15672 27.3956 5.10985 28.747 3.71546C30.094 2.32566 32.0288 1.504 34.4369 1.504V-0.496002C31.5531 -0.496002 29.0779 0.500331 27.3109 2.32354C25.5483 4.14215 24.5671 6.70328 24.5091 9.70065L26.5088 9.73935ZM34.4369 1.504C36.8451 1.504 38.7217 2.23181 39.9891 3.4379C41.251 4.63886 42.0049 6.40471 42.0049 8.676H44.0049C44.0049 5.94329 43.0849 3.62314 41.3678 1.9891C39.6562 0.360188 37.2488 -0.496002 34.4369 -0.496002V1.504ZM42.0049 8.676C42.0049 11.9207 40.4735 14.2915 35.9058 18.2525L37.2161 19.7635C41.8644 15.7325 44.0049 12.8473 44.0049 8.676H42.0049ZM35.906 18.2523L30.506 22.9323L31.8159 24.4437L37.2159 19.7637L35.906 18.2523ZM31.1609 24.688H43.1849V22.688H31.1609V24.688ZM42.1849 23.688V26.964H44.1849V23.688H42.1849Z" fill="white" mask="url(#path-1-outside-1_112_408)"/>
</svg>
