<svg width="43" height="28" viewBox="0 0 43 28" fill="none" xmlns="http://www.w3.org/2000/svg">
<mask id="path-1-outside-1_112_409" maskUnits="userSpaceOnUse" x="-1" y="-1" width="45" height="30" fill="black">
<rect fill="white" x="-1" y="-1" width="45" height="30"/>
<path d="M0.764 14.004C0.764 5.94 4.94 0.467998 11.492 0.467998C18.008 0.467998 22.184 5.94 22.184 14.004C22.184 22.104 18.188 27.468 11.492 27.468C4.76 27.468 0.764 22.104 0.764 14.004ZM4.256 14.004C4.256 20.412 6.92 24.3 11.492 24.3C16.064 24.3 18.692 20.412 18.692 14.004C18.692 7.524 16.064 3.636 11.492 3.636C6.92 3.636 4.256 7.524 4.256 14.004ZM32.966 13.536H30.374V11.196L37.754 4.104H26.054V0.971998H42.218V3.816L35.09 10.62C39.518 11.16 42.866 14.148 42.866 18.828C42.866 24.084 38.906 27.432 33.614 27.432C28.502 27.432 24.83 24.3 24.83 18.9H28.322C28.322 22.284 30.41 24.264 33.686 24.264C37.07 24.264 39.266 22.104 39.266 18.756C39.266 15.624 37.106 13.536 32.966 13.536Z"/>
</mask>
<path d="M1.764 14.004C1.764 10.1342 2.76665 6.98603 4.45794 4.82903C6.13142 2.69473 8.52329 1.468 11.492 1.468V-0.532002C7.90871 -0.532002 4.93658 0.977267 2.88406 3.59497C0.849347 6.18997 -0.236 9.80977 -0.236 14.004H1.764ZM11.492 1.468C14.4409 1.468 16.824 2.69326 18.4938 4.82811C20.1813 6.9855 21.184 10.1343 21.184 14.004H23.184C23.184 9.80973 22.0987 6.19049 20.0692 3.59589C18.022 0.978738 15.0591 -0.532002 11.492 -0.532002V1.468ZM21.184 14.004C21.184 17.9023 20.2213 21.0295 18.5605 23.1584C16.9214 25.2596 14.544 26.468 11.492 26.468V28.468C15.136 28.468 18.1046 26.9944 20.1375 24.3886C22.1487 21.8105 23.184 18.2057 23.184 14.004H21.184ZM11.492 26.468C8.42021 26.468 6.03406 25.2582 4.39123 23.1575C2.72671 21.029 1.764 17.9024 1.764 14.004H-0.236C-0.236 18.2056 0.799293 21.811 2.81577 24.3895C4.85394 26.9958 7.83179 28.468 11.492 28.468V26.468ZM3.256 14.004C3.256 17.3273 3.94394 20.1279 5.33949 22.1273C6.76473 24.1693 8.88044 25.3 11.492 25.3V23.3C9.53156 23.3 8.02927 22.4867 6.97951 20.9827C5.90006 19.4361 5.256 17.0887 5.256 14.004H3.256ZM11.492 25.3C14.1045 25.3 16.2123 24.1684 17.6285 22.1245C19.014 20.1248 19.692 17.3248 19.692 14.004H17.692C17.692 17.0912 17.056 19.4392 15.9845 20.9855C14.9437 22.4876 13.4515 23.3 11.492 23.3V25.3ZM19.692 14.004C19.692 10.6492 19.0148 7.83142 17.6298 5.82241C16.2137 3.76822 14.1051 2.636 11.492 2.636V4.636C13.4509 4.636 14.9423 5.44777 15.9832 6.95759C17.0552 8.51258 17.692 10.8788 17.692 14.004H19.692ZM11.492 2.636C8.8799 2.636 6.76338 3.76724 5.33813 5.8196C3.94315 7.82837 3.256 10.6467 3.256 14.004H5.256C5.256 10.8813 5.90085 8.51563 6.98087 6.96039C8.03062 5.44876 9.5321 4.636 11.492 4.636V2.636ZM30.374 13.536H29.374V14.536H30.374V13.536ZM30.374 11.196L29.6811 10.475L29.374 10.7701V11.196H30.374ZM37.754 4.104L38.4469 4.82503L40.2378 3.104H37.754V4.104ZM26.054 4.104H25.054V5.104H26.054V4.104ZM26.054 0.971998V-0.0280018H25.054V0.971998H26.054ZM42.218 0.971998H43.218V-0.0280018H42.218V0.971998ZM42.218 3.816L42.9085 4.53935L43.218 4.2439V3.816H42.218ZM35.09 10.62L34.3995 9.89664L32.87 11.3567L34.9689 11.6126L35.09 10.62ZM24.83 18.9V17.9H23.83V18.9H24.83ZM28.322 18.9H29.322V17.9H28.322V18.9ZM32.966 12.536H30.374V14.536H32.966V12.536ZM31.374 13.536V11.196H29.374V13.536H31.374ZM31.0669 11.917L38.4469 4.82503L37.0611 3.38296L29.6811 10.475L31.0669 11.917ZM37.754 3.104H26.054V5.104H37.754V3.104ZM27.054 4.104V0.971998H25.054V4.104H27.054ZM26.054 1.972H42.218V-0.0280018H26.054V1.972ZM41.218 0.971998V3.816H43.218V0.971998H41.218ZM41.5275 3.09264L34.3995 9.89664L35.7805 11.3434L42.9085 4.53935L41.5275 3.09264ZM34.9689 11.6126C36.9968 11.8599 38.7211 12.6605 39.9291 13.8763C41.1268 15.0818 41.866 16.7425 41.866 18.828H43.866C43.866 16.2335 42.9312 14.0602 41.3479 12.4667C39.7749 10.8835 37.6112 9.92005 35.2111 9.62735L34.9689 11.6126ZM41.866 18.828C41.866 21.1892 40.9841 23.0653 39.5536 24.3594C38.1132 25.6625 36.0513 26.432 33.614 26.432V28.432C36.4687 28.432 39.0329 27.5275 40.8954 25.8426C42.7679 24.1487 43.866 21.7228 43.866 18.828H41.866ZM33.614 26.432C31.26 26.432 29.3255 25.7131 27.9885 24.4611C26.6604 23.2174 25.83 21.3626 25.83 18.9H23.83C23.83 21.8374 24.8356 24.2486 26.6215 25.9209C28.3985 27.5849 30.856 28.432 33.614 28.432V26.432ZM24.83 19.9H28.322V17.9H24.83V19.9ZM27.322 18.9C27.322 20.8007 27.913 22.4195 29.0736 23.5632C30.2317 24.7046 31.8466 25.264 33.686 25.264V23.264C32.2494 23.264 31.1823 22.8334 30.4774 22.1388C29.775 21.4465 29.322 20.3833 29.322 18.9H27.322ZM33.686 25.264C35.5936 25.264 37.2569 24.6512 38.4471 23.4775C39.6388 22.3024 40.266 20.6538 40.266 18.756H38.266C38.266 20.2062 37.7952 21.3116 37.0429 22.0535C36.2891 22.7968 35.1624 23.264 33.686 23.264V25.264ZM40.266 18.756C40.266 16.9473 39.6334 15.3474 38.3222 14.2147C37.0292 13.0978 35.1937 12.536 32.966 12.536V14.536C34.8783 14.536 36.1928 15.0182 37.0148 15.7283C37.8186 16.4226 38.266 17.4327 38.266 18.756H40.266Z" fill="white" mask="url(#path-1-outside-1_112_409)"/>
</svg>
