<svg width="46" height="28" viewBox="0 0 46 28" fill="none" xmlns="http://www.w3.org/2000/svg">
<mask id="path-1-outside-1_112_410" maskUnits="userSpaceOnUse" x="-1" y="-1" width="48" height="30" fill="black">
<rect fill="white" x="-1" y="-1" width="48" height="30"/>
<path d="M0.764 14.004C0.764 5.94 4.94 0.467998 11.492 0.467998C18.008 0.467998 22.184 5.94 22.184 14.004C22.184 22.104 18.188 27.468 11.492 27.468C4.76 27.468 0.764 22.104 0.764 14.004ZM4.256 14.004C4.256 20.412 6.92 24.3 11.492 24.3C16.064 24.3 18.692 20.412 18.692 14.004C18.692 7.524 16.064 3.636 11.492 3.636C6.92 3.636 4.256 7.524 4.256 14.004ZM45.1289 21.744H42.0329V27H38.6489V21.744H25.1849V18.612L37.4609 0.971998H42.0329V18.612H45.1289V21.744ZM29.0009 18.612H38.6489V4.716L29.0009 18.612Z"/>
</mask>
<path d="M1.764 14.004C1.764 10.1342 2.76665 6.98603 4.45794 4.82903C6.13142 2.69473 8.52329 1.468 11.492 1.468V-0.532002C7.90871 -0.532002 4.93658 0.977267 2.88406 3.59497C0.849347 6.18997 -0.236 9.80977 -0.236 14.004H1.764ZM11.492 1.468C14.4409 1.468 16.824 2.69326 18.4938 4.82811C20.1813 6.9855 21.184 10.1343 21.184 14.004H23.184C23.184 9.80973 22.0987 6.19049 20.0692 3.59589C18.022 0.978738 15.0591 -0.532002 11.492 -0.532002V1.468ZM21.184 14.004C21.184 17.9023 20.2213 21.0295 18.5605 23.1584C16.9214 25.2596 14.544 26.468 11.492 26.468V28.468C15.136 28.468 18.1046 26.9944 20.1375 24.3886C22.1487 21.8105 23.184 18.2057 23.184 14.004H21.184ZM11.492 26.468C8.42021 26.468 6.03406 25.2582 4.39123 23.1575C2.72671 21.029 1.764 17.9024 1.764 14.004H-0.236C-0.236 18.2056 0.799293 21.811 2.81577 24.3895C4.85394 26.9958 7.83179 28.468 11.492 28.468V26.468ZM3.256 14.004C3.256 17.3273 3.94394 20.1279 5.33949 22.1273C6.76473 24.1693 8.88044 25.3 11.492 25.3V23.3C9.53156 23.3 8.02927 22.4867 6.97951 20.9827C5.90006 19.4361 5.256 17.0887 5.256 14.004H3.256ZM11.492 25.3C14.1045 25.3 16.2123 24.1684 17.6285 22.1245C19.014 20.1248 19.692 17.3248 19.692 14.004H17.692C17.692 17.0912 17.056 19.4392 15.9845 20.9855C14.9437 22.4876 13.4515 23.3 11.492 23.3V25.3ZM19.692 14.004C19.692 10.6492 19.0148 7.83142 17.6298 5.82241C16.2137 3.76822 14.1051 2.636 11.492 2.636V4.636C13.4509 4.636 14.9423 5.44777 15.9832 6.95759C17.0552 8.51258 17.692 10.8788 17.692 14.004H19.692ZM11.492 2.636C8.8799 2.636 6.76338 3.76724 5.33813 5.8196C3.94315 7.82837 3.256 10.6467 3.256 14.004H5.256C5.256 10.8813 5.90085 8.51563 6.98087 6.96039C8.03062 5.44876 9.5321 4.636 11.492 4.636V2.636ZM45.1289 21.744V22.744H46.1289V21.744H45.1289ZM42.0329 21.744V20.744H41.0329V21.744H42.0329ZM42.0329 27V28H43.0329V27H42.0329ZM38.6489 27H37.6489V28H38.6489V27ZM38.6489 21.744H39.6489V20.744H38.6489V21.744ZM25.1849 21.744H24.1849V22.744H25.1849V21.744ZM25.1849 18.612L24.3641 18.0408L24.1849 18.2983V18.612H25.1849ZM37.4609 0.971998V-0.0280018H36.9385L36.6401 0.400786L37.4609 0.971998ZM42.0329 0.971998H43.0329V-0.0280018H42.0329V0.971998ZM42.0329 18.612H41.0329V19.612H42.0329V18.612ZM45.1289 18.612H46.1289V17.612H45.1289V18.612ZM29.0009 18.612L28.1795 18.0417L27.0892 19.612H29.0009V18.612ZM38.6489 18.612V19.612H39.6489V18.612H38.6489ZM38.6489 4.716H39.6489V1.52229L37.8275 4.14568L38.6489 4.716ZM45.1289 20.744H42.0329V22.744H45.1289V20.744ZM41.0329 21.744V27H43.0329V21.744H41.0329ZM42.0329 26H38.6489V28H42.0329V26ZM39.6489 27V21.744H37.6489V27H39.6489ZM38.6489 20.744H25.1849V22.744H38.6489V20.744ZM26.1849 21.744V18.612H24.1849V21.744H26.1849ZM26.0057 19.1832L38.2817 1.54321L36.6401 0.400786L24.3641 18.0408L26.0057 19.1832ZM37.4609 1.972H42.0329V-0.0280018H37.4609V1.972ZM41.0329 0.971998V18.612H43.0329V0.971998H41.0329ZM42.0329 19.612H45.1289V17.612H42.0329V19.612ZM44.1289 18.612V21.744H46.1289V18.612H44.1289ZM29.0009 19.612H38.6489V17.612H29.0009V19.612ZM39.6489 18.612V4.716H37.6489V18.612H39.6489ZM37.8275 4.14568L28.1795 18.0417L29.8224 19.1823L39.4704 5.28632L37.8275 4.14568Z" fill="white" mask="url(#path-1-outside-1_112_410)"/>
</svg>
