<svg width="89" height="137" viewBox="0 0 89 137" fill="none" xmlns="http://www.w3.org/2000/svg">
<mask id="path-1-outside-1_47_1880" maskUnits="userSpaceOnUse" x="19" y="12" width="48" height="30" fill="black">
<rect fill="white" x="19" y="12" width="48" height="30"/>
<path d="M20.764 27.004C20.764 18.94 24.94 13.468 31.492 13.468C38.008 13.468 42.184 18.94 42.184 27.004C42.184 35.104 38.188 40.468 31.492 40.468C24.76 40.468 20.764 35.104 20.764 27.004ZM24.256 27.004C24.256 33.412 26.92 37.3 31.492 37.3C36.064 37.3 38.692 33.412 38.692 27.004C38.692 20.524 36.064 16.636 31.492 16.636C26.92 16.636 24.256 20.524 24.256 27.004ZM65.1289 34.744H62.0329V40H58.6489V34.744H45.1849V31.612L57.4609 13.972H62.0329V31.612H65.1289V34.744ZM49.0009 31.612H58.6489V17.716L49.0009 31.612Z"/>
</mask>
<path d="M21.764 27.004C21.764 23.1342 22.7667 19.986 24.4579 17.829C26.1314 15.6947 28.5233 14.468 31.492 14.468V12.468C27.9087 12.468 24.9366 13.9773 22.8841 16.595C20.8493 19.19 19.764 22.8098 19.764 27.004H21.764ZM31.492 14.468C34.4409 14.468 36.824 15.6933 38.4938 17.8281C40.1813 19.9855 41.184 23.1343 41.184 27.004H43.184C43.184 22.8097 42.0987 19.1905 40.0692 16.5959C38.022 13.9787 35.0591 12.468 31.492 12.468V14.468ZM41.184 27.004C41.184 30.9023 40.2213 34.0295 38.5605 36.1584C36.9214 38.2596 34.544 39.468 31.492 39.468V41.468C35.136 41.468 38.1046 39.9944 40.1375 37.3886C42.1487 34.8105 43.184 31.2057 43.184 27.004H41.184ZM31.492 39.468C28.4202 39.468 26.0341 38.2582 24.3912 36.1575C22.7267 34.029 21.764 30.9024 21.764 27.004H19.764C19.764 31.2056 20.7993 34.811 22.8158 37.3895C24.8539 39.9958 27.8318 41.468 31.492 41.468V39.468ZM23.256 27.004C23.256 30.3273 23.9439 33.1279 25.3395 35.1273C26.7647 37.1693 28.8804 38.3 31.492 38.3V36.3C29.5316 36.3 28.0293 35.4867 26.9795 33.9827C25.9001 32.4361 25.256 30.0887 25.256 27.004H23.256ZM31.492 38.3C34.1045 38.3 36.2123 37.1684 37.6285 35.1245C39.014 33.1248 39.692 30.3248 39.692 27.004H37.692C37.692 30.0912 37.056 32.4392 35.9845 33.9855C34.9437 35.4876 33.4515 36.3 31.492 36.3V38.3ZM39.692 27.004C39.692 23.6492 39.0148 20.8314 37.6298 18.8224C36.2137 16.7682 34.1051 15.636 31.492 15.636V17.636C33.4509 17.636 34.9423 18.4478 35.9832 19.9576C37.0552 21.5126 37.692 23.8788 37.692 27.004H39.692ZM31.492 15.636C28.8799 15.636 26.7634 16.7672 25.3381 18.8196C23.9432 20.8284 23.256 23.6467 23.256 27.004H25.256C25.256 23.8813 25.9008 21.5156 26.9809 19.9604C28.0306 18.4488 29.5321 17.636 31.492 17.636V15.636ZM65.1289 34.744V35.744H66.1289V34.744H65.1289ZM62.0329 34.744V33.744H61.0329V34.744H62.0329ZM62.0329 40V41H63.0329V40H62.0329ZM58.6489 40H57.6489V41H58.6489V40ZM58.6489 34.744H59.6489V33.744H58.6489V34.744ZM45.1849 34.744H44.1849V35.744H45.1849V34.744ZM45.1849 31.612L44.3641 31.0408L44.1849 31.2983V31.612H45.1849ZM57.4609 13.972V12.972H56.9385L56.6401 13.4008L57.4609 13.972ZM62.0329 13.972H63.0329V12.972H62.0329V13.972ZM62.0329 31.612H61.0329V32.612H62.0329V31.612ZM65.1289 31.612H66.1289V30.612H65.1289V31.612ZM49.0009 31.612L48.1795 31.0417L47.0892 32.612H49.0009V31.612ZM58.6489 31.612V32.612H59.6489V31.612H58.6489ZM58.6489 17.716H59.6489V14.5223L57.8275 17.1457L58.6489 17.716ZM65.1289 33.744H62.0329V35.744H65.1289V33.744ZM61.0329 34.744V40H63.0329V34.744H61.0329ZM62.0329 39H58.6489V41H62.0329V39ZM59.6489 40V34.744H57.6489V40H59.6489ZM58.6489 33.744H45.1849V35.744H58.6489V33.744ZM46.1849 34.744V31.612H44.1849V34.744H46.1849ZM46.0057 32.1832L58.2817 14.5432L56.6401 13.4008L44.3641 31.0408L46.0057 32.1832ZM57.4609 14.972H62.0329V12.972H57.4609V14.972ZM61.0329 13.972V31.612H63.0329V13.972H61.0329ZM62.0329 32.612H65.1289V30.612H62.0329V32.612ZM64.1289 31.612V34.744H66.1289V31.612H64.1289ZM49.0009 32.612H58.6489V30.612H49.0009V32.612ZM59.6489 31.612V17.716H57.6489V31.612H59.6489ZM57.8275 17.1457L48.1795 31.0417L49.8224 32.1823L59.4704 18.2863L57.8275 17.1457Z" fill="#0B1829" mask="url(#path-1-outside-1_47_1880)"/>
<line x1="0.650635" y1="64.75" x2="88.6506" y2="64.75" stroke="#0B1829" stroke-width="0.5"/>
<path d="M33.6506 86.436H53.6986V93.772C53.6986 97.636 51.7386 100.016 48.5186 100.016C46.1666 100.016 44.5706 98.98 43.7586 96.908C43.0026 99.232 41.3786 100.408 38.9146 100.408C35.6946 100.408 33.6506 98 33.6506 94.192V86.436ZM51.9066 93.744V88.452H44.5706V93.996C44.5706 96.516 45.9706 97.944 48.3506 97.944C50.5906 97.944 51.9066 96.432 51.9066 93.744ZM42.8066 94.192V88.452H35.4706V94.192C35.4706 96.824 36.8426 98.364 39.1666 98.364C41.4346 98.364 42.8066 96.796 42.8066 94.192ZM33.6506 103.212V101.168L53.6986 108.532V111.024L33.6506 118.472V116.372L38.9706 114.412V105.172L33.6506 103.212ZM50.8706 109.512L40.7346 105.788V113.768L50.8706 110.016C51.1506 109.932 51.4866 109.792 51.6826 109.764C51.5146 109.736 51.1506 109.624 50.8706 109.512ZM33.6506 122.715V120.699H53.6986V128.175C53.6986 132.235 51.4586 134.699 47.9026 134.699C45.0186 134.699 43.0026 133.187 42.3026 130.611L33.6506 134.895V132.655L41.9666 128.567V122.715H33.6506ZM51.8786 122.715H43.7866V128.231C43.7866 131.003 45.2986 132.627 47.8466 132.627C50.4506 132.627 51.8786 130.919 51.8786 128.175V122.715Z" fill="#0B1829"/>
</svg>
