<svg width="183" height="241" viewBox="0 0 183 241" fill="none" xmlns="http://www.w3.org/2000/svg">
<path d="M-160.747 6.86252C-160.747 6.86252 -96.5074 -7.70086 -79.9329 -58.6727C-64.0816 -107.535 1.21502 -120.669 1.21502 -120.669" stroke="black" stroke-opacity="0.08" stroke-width="2" stroke-miterlimit="10"/>
<path d="M-160.747 31.3617C-160.747 31.3617 -81.9352 14.5525 -61.6343 -46.9676C-42.2789 -105.697 37.7567 -120.669 37.7567 -120.669" stroke="black" stroke-opacity="0.08" stroke-width="2" stroke-miterlimit="10"/>
<path d="M-160.747 55.9289C-160.747 55.9289 -67.4187 36.8059 -43.3913 -35.1263C-20.4763 -103.928 74.2983 -120.669 74.2983 -120.669" stroke="black" stroke-opacity="0.08" stroke-width="2" stroke-miterlimit="10"/>
<path d="M-160.747 80.428C-160.747 80.428 -52.8465 59.0593 -25.0927 -23.4212C1.32626 -102.091 110.84 -120.669 110.84 -120.669" stroke="black" stroke-opacity="0.08" stroke-width="2" stroke-miterlimit="10"/>
<path d="M-160.747 104.927C-160.747 104.927 -38.2744 81.3127 -6.79408 -11.6479C23.1289 -100.253 147.326 -120.669 147.326 -120.669" stroke="black" stroke-opacity="0.08" stroke-width="2" stroke-miterlimit="10"/>
<path d="M-160.747 129.494C-160.747 129.494 -23.7578 103.634 11.4489 0.125258C44.9871 -98.4838 183.868 -120.669 183.868 -120.669" stroke="black" stroke-opacity="0.08" stroke-width="2" stroke-miterlimit="10"/>
<path d="M-160.747 153.994C-160.747 153.994 -9.18572 125.82 29.7475 11.8985C66.7897 -96.6464 220.409 -120.669 220.409 -120.669" stroke="black" stroke-opacity="0.08" stroke-width="2" stroke-miterlimit="10"/>
<path d="M-160.747 178.493C-160.747 178.493 5.38644 148.073 47.9905 23.6036C88.5923 -94.809 256.951 -120.669 256.951 -120.669" stroke="black" stroke-opacity="0.08" stroke-width="2" stroke-miterlimit="10"/>
<path d="M-160.747 203.06C-160.747 203.06 19.903 170.394 66.2891 35.4448C110.395 -93.0396 293.437 -120.669 293.437 -120.669" stroke="black" stroke-opacity="0.08" stroke-width="2" stroke-miterlimit="10"/>
<path d="M-160.747 227.559C-160.747 227.559 34.4752 192.648 84.5322 47.2181C132.198 -91.2021 329.978 -120.669 329.978 -120.669" stroke="black" stroke-opacity="0.08" stroke-width="2" stroke-miterlimit="10"/>
<path d="M-160.747 252.126C-160.747 252.126 49.0473 214.901 102.831 58.9913C154 -89.3647 366.52 -120.669 366.52 -120.669" stroke="black" stroke-opacity="0.08" stroke-width="2" stroke-miterlimit="10"/>
<path d="M-160.747 276.625C-160.747 276.625 63.5638 237.155 121.074 70.7645C175.803 -87.5953 403.062 -120.669 403.062 -120.669" stroke="black" stroke-opacity="0.08" stroke-width="2" stroke-miterlimit="10"/>
<path d="M-160.747 301.125C-160.747 301.125 78.136 259.408 139.372 82.4696C197.605 -85.7579 439.603 -120.669 439.603 -120.669" stroke="black" stroke-opacity="0.08" stroke-width="2" stroke-miterlimit="10"/>
<path d="M-160.747 325.692C-160.747 325.692 92.7081 281.661 157.671 94.3109C219.408 -83.9205 476.089 -120.669 476.089 -120.669" stroke="black" stroke-opacity="0.08" stroke-width="2" stroke-miterlimit="10"/>
<path d="M-160.747 350.191C-160.747 350.191 107.225 303.915 175.914 106.016C241.211 -82.1511 512.631 -120.669 512.631 -120.669" stroke="black" stroke-opacity="0.08" stroke-width="2" stroke-miterlimit="10"/>
<path d="M-160.747 374.69C-160.747 374.69 121.797 326.168 194.213 117.789C263.013 -80.3136 549.172 -120.669 549.172 -120.669" stroke="black" stroke-opacity="0.08" stroke-width="2" stroke-miterlimit="10"/>
<path d="M-160.747 399.257C-160.747 399.257 136.369 348.49 212.456 129.562C284.816 -78.4762 585.714 -120.669 585.714 -120.669" stroke="black" stroke-opacity="0.08" stroke-width="2" stroke-miterlimit="10"/>
<path d="M-160.747 423.756C-160.747 423.756 150.885 370.675 230.754 141.336C306.618 -76.7068 622.2 -120.669 622.2 -120.669" stroke="black" stroke-opacity="0.08" stroke-width="2" stroke-miterlimit="10"/>
</svg>
