<svg width="16" height="16" viewBox="0 0 16 16" fill="none" xmlns="http://www.w3.org/2000/svg">
<path fill-rule="evenodd" clip-rule="evenodd" d="M0.999106 7.99937C0.999106 7.86676 1.05178 7.73958 1.14555 7.64581C1.23932 7.55205 1.3665 7.49937 1.49911 7.49937L13.2921 7.49937L10.1451 4.35337C10.0512 4.25948 9.99847 4.13214 9.99847 3.99937C9.99847 3.86659 10.0512 3.73925 10.1451 3.64537C10.239 3.55148 10.3663 3.49874 10.4991 3.49874C10.6319 3.49874 10.7592 3.55148 10.8531 3.64537L14.8531 7.64537C14.8997 7.69181 14.9366 7.74699 14.9618 7.80774C14.987 7.86848 15 7.9336 15 7.99937C15 8.06514 14.987 8.13026 14.9618 8.191C14.9366 8.25175 14.8997 8.30692 14.8531 8.35337L10.8531 12.3534C10.8066 12.3999 10.7514 12.4367 10.6907 12.4619C10.63 12.4871 10.5649 12.5 10.4991 12.5C10.3663 12.5 10.239 12.4473 10.1451 12.3534C10.0512 12.2595 9.99847 12.1321 9.99847 11.9994C9.99847 11.8666 10.0512 11.7393 10.1451 11.6454L13.2921 8.49937H1.49911C1.3665 8.49937 1.23932 8.44669 1.14555 8.35292C1.05178 8.25915 0.999106 8.13198 0.999106 7.99937Z" fill="black"/>
</svg>
