<svg width="16" height="16" viewBox="0 0 16 16" fill="none" xmlns="http://www.w3.org/2000/svg">
<path fill-rule="evenodd" clip-rule="evenodd" d="M14.9999 7.99937C14.9999 7.86676 14.9472 7.73958 14.8535 7.64581C14.7597 7.55205 14.6325 7.49937 14.4999 7.49937L2.70692 7.49937L5.85392 4.35337C5.9478 4.25948 6.00055 4.13214 6.00055 3.99937C6.00055 3.86659 5.9478 3.73925 5.85392 3.64537C5.76003 3.55148 5.63269 3.49874 5.49992 3.49874C5.36714 3.49874 5.2398 3.55148 5.14592 3.64537L1.14592 7.64537C1.09935 7.69181 1.06241 7.74699 1.0372 7.80774C1.012 7.86848 0.999023 7.9336 0.999023 7.99937C0.999023 8.06514 1.012 8.13026 1.0372 8.191C1.06241 8.25175 1.09935 8.30692 1.14592 8.35337L5.14592 12.3534C5.1924 12.3999 5.24759 12.4367 5.30833 12.4619C5.36907 12.4871 5.43417 12.5 5.49992 12.5C5.63269 12.5 5.76003 12.4473 5.85392 12.3534C5.9478 12.2595 6.00055 12.1321 6.00055 11.9994C6.00055 11.8666 5.9478 11.7393 5.85392 11.6454L2.70692 8.49937H14.4999C14.6325 8.49937 14.7597 8.44669 14.8535 8.35292C14.9472 8.25915 14.9999 8.13198 14.9999 7.99937Z" fill="black"/>
</svg>
