<svg width="89" height="272" viewBox="0 0 89 272" fill="none" xmlns="http://www.w3.org/2000/svg">
<mask id="path-1-outside-1_47_1873" maskUnits="userSpaceOnUse" x="19" y="12" width="45" height="30" fill="black">
<rect fill="white" x="19" y="12" width="45" height="30"/>
<path d="M20.764 27.004C20.764 18.94 24.94 13.468 31.492 13.468C38.008 13.468 42.184 18.94 42.184 27.004C42.184 35.104 38.188 40.468 31.492 40.468C24.76 40.468 20.764 35.104 20.764 27.004ZM24.256 27.004C24.256 33.412 26.92 37.3 31.492 37.3C36.064 37.3 38.692 33.412 38.692 27.004C38.692 20.524 36.064 16.636 31.492 16.636C26.92 16.636 24.256 20.524 24.256 27.004ZM52.966 26.536H50.374V24.196L57.754 17.104H46.054V13.972H62.218V16.816L55.09 23.62C59.518 24.16 62.866 27.148 62.866 31.828C62.866 37.084 58.906 40.432 53.614 40.432C48.502 40.432 44.83 37.3 44.83 31.9H48.322C48.322 35.284 50.41 37.264 53.686 37.264C57.07 37.264 59.266 35.104 59.266 31.756C59.266 28.624 57.106 26.536 52.966 26.536Z"/>
</mask>
<path d="M21.764 27.004C21.764 23.1342 22.7667 19.986 24.4579 17.829C26.1314 15.6947 28.5233 14.468 31.492 14.468V12.468C27.9087 12.468 24.9366 13.9773 22.8841 16.595C20.8493 19.19 19.764 22.8098 19.764 27.004H21.764ZM31.492 14.468C34.4409 14.468 36.824 15.6933 38.4938 17.8281C40.1813 19.9855 41.184 23.1343 41.184 27.004H43.184C43.184 22.8097 42.0987 19.1905 40.0692 16.5959C38.022 13.9787 35.0591 12.468 31.492 12.468V14.468ZM41.184 27.004C41.184 30.9023 40.2213 34.0295 38.5605 36.1584C36.9214 38.2596 34.544 39.468 31.492 39.468V41.468C35.136 41.468 38.1046 39.9944 40.1375 37.3886C42.1487 34.8105 43.184 31.2057 43.184 27.004H41.184ZM31.492 39.468C28.4202 39.468 26.0341 38.2582 24.3912 36.1575C22.7267 34.029 21.764 30.9024 21.764 27.004H19.764C19.764 31.2056 20.7993 34.811 22.8158 37.3895C24.8539 39.9958 27.8318 41.468 31.492 41.468V39.468ZM23.256 27.004C23.256 30.3273 23.9439 33.1279 25.3395 35.1273C26.7647 37.1693 28.8804 38.3 31.492 38.3V36.3C29.5316 36.3 28.0293 35.4867 26.9795 33.9827C25.9001 32.4361 25.256 30.0887 25.256 27.004H23.256ZM31.492 38.3C34.1045 38.3 36.2123 37.1684 37.6285 35.1245C39.014 33.1248 39.692 30.3248 39.692 27.004H37.692C37.692 30.0912 37.056 32.4392 35.9845 33.9855C34.9437 35.4876 33.4515 36.3 31.492 36.3V38.3ZM39.692 27.004C39.692 23.6492 39.0148 20.8314 37.6298 18.8224C36.2137 16.7682 34.1051 15.636 31.492 15.636V17.636C33.4509 17.636 34.9423 18.4478 35.9832 19.9576C37.0552 21.5126 37.692 23.8788 37.692 27.004H39.692ZM31.492 15.636C28.8799 15.636 26.7634 16.7672 25.3381 18.8196C23.9432 20.8284 23.256 23.6467 23.256 27.004H25.256C25.256 23.8813 25.9008 21.5156 26.9809 19.9604C28.0306 18.4488 29.5321 17.636 31.492 17.636V15.636ZM50.374 26.536H49.374V27.536H50.374V26.536ZM50.374 24.196L49.6811 23.475L49.374 23.7701V24.196H50.374ZM57.754 17.104L58.4469 17.825L60.2378 16.104H57.754V17.104ZM46.054 17.104H45.054V18.104H46.054V17.104ZM46.054 13.972V12.972H45.054V13.972H46.054ZM62.218 13.972H63.218V12.972H62.218V13.972ZM62.218 16.816L62.9085 17.5394L63.218 17.2439V16.816H62.218ZM55.09 23.62L54.3995 22.8966L52.87 24.3567L54.9689 24.6126L55.09 23.62ZM44.83 31.9V30.9H43.83V31.9H44.83ZM48.322 31.9H49.322V30.9H48.322V31.9ZM52.966 25.536H50.374V27.536H52.966V25.536ZM51.374 26.536V24.196H49.374V26.536H51.374ZM51.0669 24.917L58.4469 17.825L57.0611 16.383L49.6811 23.475L51.0669 24.917ZM57.754 16.104H46.054V18.104H57.754V16.104ZM47.054 17.104V13.972H45.054V17.104H47.054ZM46.054 14.972H62.218V12.972H46.054V14.972ZM61.218 13.972V16.816H63.218V13.972H61.218ZM61.5275 16.0926L54.3995 22.8966L55.7805 24.3434L62.9085 17.5394L61.5275 16.0926ZM54.9689 24.6126C56.9968 24.8599 58.7211 25.6605 59.9291 26.8763C61.1268 28.0818 61.866 29.7425 61.866 31.828H63.866C63.866 29.2335 62.9312 27.0602 61.3479 25.4667C59.7749 23.8835 57.6112 22.9201 55.2111 22.6274L54.9689 24.6126ZM61.866 31.828C61.866 34.1892 60.9841 36.0653 59.5536 37.3594C58.1132 38.6625 56.0513 39.432 53.614 39.432V41.432C56.4687 41.432 59.0329 40.5275 60.8954 38.8426C62.7679 37.1487 63.866 34.7228 63.866 31.828H61.866ZM53.614 39.432C51.26 39.432 49.3255 38.7131 47.9885 37.4611C46.6604 36.2174 45.83 34.3626 45.83 31.9H43.83C43.83 34.8374 44.8356 37.2486 46.6215 38.9209C48.3985 40.5849 50.856 41.432 53.614 41.432V39.432ZM44.83 32.9H48.322V30.9H44.83V32.9ZM47.322 31.9C47.322 33.8007 47.913 35.4195 49.0736 36.5632C50.2317 37.7046 51.8466 38.264 53.686 38.264V36.264C52.2494 36.264 51.1823 35.8334 50.4774 35.1388C49.775 34.4465 49.322 33.3833 49.322 31.9H47.322ZM53.686 38.264C55.5936 38.264 57.2569 37.6512 58.4471 36.4775C59.6388 35.3024 60.266 33.6538 60.266 31.756H58.266C58.266 33.2062 57.7952 34.3116 57.0429 35.0535C56.2891 35.7968 55.1624 36.264 53.686 36.264V38.264ZM60.266 31.756C60.266 29.9473 59.6334 28.3474 58.3222 27.2147C57.0292 26.0978 55.1937 25.536 52.966 25.536V27.536C54.8783 27.536 56.1928 28.0182 57.0148 28.7283C57.8186 29.4226 58.266 30.4327 58.266 31.756H60.266Z" fill="#0B1829" mask="url(#path-1-outside-1_47_1873)"/>
<line x1="0.650635" y1="63.75" x2="88.6506" y2="63.75" stroke="#0B1829" stroke-width="0.5"/>
<path d="M53.6986 87.452H33.6506V85.436H53.6986V87.452ZM33.6506 93.7826V91.7666H53.6986V93.8106L37.0106 104.843H53.6986V106.831H33.6506L33.6506 104.843L50.3386 93.7826H33.6506ZM33.6506 117.272V111.168H53.6986L53.6986 117.216C53.6986 123.264 49.6666 127.296 43.6746 127.296C37.6826 127.296 33.6506 123.292 33.6506 117.272ZM51.8506 117.132L51.8506 113.184H35.4986V117.188C35.4986 122.088 38.6906 125.224 43.6746 125.224C48.6866 125.224 51.8506 122.088 51.8506 117.132ZM43.6746 148.241C37.5986 148.241 33.3146 144.293 33.3146 138.693C33.3146 133.065 37.5986 129.145 43.6746 129.145C49.7506 129.145 54.0626 133.093 54.0626 138.693C54.0626 144.321 49.7786 148.241 43.6746 148.241ZM43.6746 146.169C48.6866 146.169 52.1026 143.117 52.1026 138.693C52.1026 134.269 48.6866 131.245 43.6746 131.245C38.6626 131.245 35.2466 134.269 35.2466 138.693C35.2466 143.117 38.6906 146.169 43.6746 146.169ZM43.6746 169.201C37.5986 169.201 33.3146 165.253 33.3146 159.653C33.3146 154.025 37.5986 150.105 43.6746 150.105C49.7506 150.105 54.0626 154.053 54.0626 159.653C54.0626 165.281 49.7786 169.201 43.6746 169.201ZM43.6746 167.129C48.6866 167.129 52.1026 164.077 52.1026 159.653C52.1026 155.229 48.6866 152.205 43.6746 152.205C38.6626 152.205 35.2466 155.229 35.2466 159.653C35.2466 164.077 38.6906 167.129 43.6746 167.129ZM33.6506 174.312V172.296H53.6986V179.772C53.6986 183.832 51.4586 186.296 47.9026 186.296C45.0186 186.296 43.0026 184.784 42.3026 182.208L33.6506 186.492V184.252L41.9666 180.164V174.312H33.6506ZM51.8786 174.312H43.7866V179.828C43.7866 182.6 45.2986 184.224 47.8466 184.224C50.4506 184.224 51.8786 182.516 51.8786 179.772V174.312ZM52.1306 205.252C52.1306 200.632 48.7146 197.72 43.5906 197.72C38.3826 197.72 35.2186 200.8 35.2186 205.308C35.2186 208.668 36.8426 211.944 41.6586 211.944H42.6946L42.6946 204.692H44.4866L44.4866 213.848H33.6226V212.252L36.8146 212.056C34.8266 210.992 33.3146 208.472 33.3146 205.224C33.3146 199.54 37.4026 195.62 43.5906 195.62C49.7226 195.62 54.0346 199.54 54.0346 205.28C54.0346 209.508 51.6266 212.784 47.9866 213.568V211.384C50.7306 210.544 52.1306 208.192 52.1306 205.252ZM33.6506 217.292V215.248L53.6986 222.612V225.104L33.6506 232.552V230.452L38.9706 228.492V219.252L33.6506 217.292ZM50.8706 223.592L40.7346 219.868V227.848L50.8706 224.096C51.1506 224.012 51.4866 223.872 51.6826 223.844C51.5146 223.816 51.1506 223.704 50.8706 223.592ZM33.6506 236.767V234.779H53.6986V236.767L36.0306 244.075L53.6986 251.383V253.399H33.6506V251.411H43.1706C46.6706 251.411 48.2106 251.467 49.5826 251.579L33.6506 245.055V243.123L49.4986 236.599C48.7426 236.711 46.5306 236.767 43.4786 236.767H33.6506ZM33.6506 269.719V257.707H53.6986V269.691H51.8506V259.723H44.6266V268.767H42.8066V259.723H35.4986V269.719H33.6506Z" fill="#0B1829"/>
</svg>
