<svg width="111" height="111" viewBox="0 0 111 111" fill="none" xmlns="http://www.w3.org/2000/svg">
<path opacity="0.4" d="M77.2486 52.9634L77.2969 51.6669H75.9994H64.8854C63.6531 51.6669 62.6524 50.6658 62.6524 49.4337V19.4853C62.6524 18.2524 63.6522 17.2529 64.8854 17.2529H94.5168C95.7493 17.2529 96.75 18.2539 96.75 19.4853V49.434C96.75 56.012 96.0857 62.0214 94.7939 67.3049C93.4679 72.7161 91.4415 77.4095 88.7925 81.2746C86.072 85.2408 82.6799 88.3348 78.7188 90.4861C74.7492 92.6394 70.1047 93.7499 64.8849 93.75C63.6533 93.7491 62.6524 92.7482 62.6524 91.5154V77.3322C62.6524 76.0984 63.6524 75.0991 64.8854 75.0991C68.8614 75.0991 71.8943 73.006 73.9256 69.1792C75.9132 65.4348 76.987 59.9775 77.2486 52.9634ZM40.3896 81.2717L40.3893 81.272C37.6693 85.2407 34.2779 88.332 30.3145 90.4833C26.3474 92.6364 21.7001 93.7473 16.4823 93.7473C15.2495 93.7473 14.25 92.7478 14.25 91.5156V77.3296C14.25 76.0982 15.2497 75.0979 16.4823 75.0979C20.4197 75.0979 23.4135 72.9947 25.4143 69.1712C27.3728 65.4286 28.431 59.9734 28.6894 52.9602L28.7371 51.6642H27.4402H16.4823C15.25 51.6642 14.25 50.6644 14.25 49.431V19.4824C14.25 18.2503 15.2499 17.25 16.4823 17.25H46.1146C47.347 17.25 48.3476 18.2497 48.3476 19.4824V49.431C48.3476 56.0066 47.6847 62.0163 46.3921 67.2997C45.0661 72.7135 43.04 77.4069 40.3896 81.2717Z" stroke="#91257D" stroke-width="2.5"/>
</svg>
