<svg width="71" height="71" viewBox="0 0 71 71" fill="none" xmlns="http://www.w3.org/2000/svg">
<path d="M18.7854 45.4111L12.5729 39.0507C15.6299 35.9937 19.1306 33.6517 23.075 32.0246C27.0194 30.3975 31.1611 29.584 35.5 29.584C39.8389 29.584 43.9934 30.4103 47.9635 32.0631C51.9335 33.7158 55.4214 36.0943 58.4271 39.1986L52.2146 45.4111C49.9958 43.1923 47.4438 41.4794 44.5584 40.2724C41.6731 39.0654 38.6536 38.461 35.5 38.459C32.3444 38.459 29.325 39.0635 26.4416 40.2724C23.5582 41.4814 21.0061 43.1943 18.7854 45.4111ZM6.2125 32.8382L0 26.6257C4.68403 21.843 10.0958 18.1816 16.2353 15.6414C22.3749 13.1011 28.7964 11.832 35.5 11.834C42.2056 11.834 48.6281 13.1041 54.7676 15.6443C60.9072 18.1845 66.3179 21.845 71 26.6257L64.7875 32.8382C60.8924 28.943 56.4174 25.9482 51.3626 23.8537C46.3078 21.7592 41.0202 20.711 35.5 20.709C29.9778 20.709 24.6893 21.7572 19.6345 23.8537C14.5797 25.9502 10.1057 28.945 6.2125 32.8382ZM35.5 62.1256L25.0719 51.6236C26.4524 50.243 28.043 49.1829 29.8437 48.4434C31.6443 47.7038 33.5298 47.334 35.5 47.334C37.4722 47.334 39.3587 47.7038 41.1593 48.4434C42.9599 49.1829 44.5495 50.243 45.9281 51.6236L35.5 62.1256Z" fill="#91257D"/>
</svg>
