<svg width="32" height="32" viewBox="0 0 32 32" fill="none" xmlns="http://www.w3.org/2000/svg">
<path d="M16 10.5334C14.9188 10.5334 13.8619 10.854 12.963 11.4547C12.064 12.0554 11.3633 12.9092 10.9495 13.908C10.5358 14.907 10.4275 16.0062 10.6384 17.0666C10.8494 18.127 11.37 19.1011 12.1346 19.8656C12.8991 20.63 13.8731 21.1507 14.9335 21.3616C15.994 21.5726 17.0931 21.4643 18.092 21.0506C19.091 20.6368 19.9447 19.9362 20.5454 19.0372C21.1462 18.1382 21.4667 17.0812 21.4667 16C21.4684 15.2816 21.3283 14.57 21.0542 13.906C20.78 13.2419 20.3775 12.6386 19.8695 12.1306C19.3615 11.6226 18.7582 11.22 18.0942 10.9459C17.43 10.6718 16.7184 10.5316 16 10.5334ZM16 19.56C15.2959 19.56 14.6076 19.3512 14.0222 18.96C13.4368 18.569 12.9805 18.013 12.7111 17.3624C12.4416 16.7119 12.3711 15.9962 12.5085 15.3055C12.6458 14.615 12.9849 13.9806 13.4827 13.4827C13.9806 12.9849 14.615 12.6458 15.3055 12.5085C15.9962 12.3711 16.7119 12.4416 17.3624 12.7111C18.013 12.9805 18.569 13.4368 18.96 14.0222C19.3512 14.6076 19.56 15.2959 19.56 16C19.56 16.9442 19.185 17.8498 18.5174 18.5174C17.8498 19.185 16.9442 19.56 16 19.56ZM22.9734 10.3067C22.9734 10.5704 22.8952 10.8282 22.7487 11.0475C22.6022 11.2668 22.3939 11.4377 22.1503 11.5386C21.9067 11.6395 21.6386 11.6659 21.3799 11.6144C21.1212 11.563 20.8838 11.436 20.6972 11.2495C20.5108 11.0631 20.3838 10.8255 20.3323 10.5669C20.2808 10.3082 20.3072 10.0401 20.4082 9.79649C20.5091 9.55286 20.68 9.34462 20.8992 9.19811C21.1186 9.05159 21.3763 8.97339 21.64 8.97339C21.9936 8.97339 22.3328 9.11387 22.5828 9.36393C22.833 9.61397 22.9734 9.95311 22.9734 10.3067ZM26.5867 11.6401C26.6255 9.9825 26.0072 8.37686 24.8667 7.17339C23.6696 6.01831 22.0632 5.38534 20.4 5.41339C18.6667 5.33339 13.3334 5.33339 11.6001 5.41339C9.94301 5.37751 8.33843 5.99541 7.13339 7.13339C5.99291 8.33686 5.37462 9.9425 5.41339 11.6001C5.33339 13.3334 5.33339 18.6667 5.41339 20.4C5.37462 22.0576 5.99291 23.6632 7.13339 24.8667C8.33843 26.0047 9.94301 26.6226 11.6001 26.5867C13.36 26.6934 18.64 26.6934 20.4 26.5867C22.0576 26.6255 23.6632 26.0072 24.8667 24.8667C26.0072 23.6632 26.6255 22.0576 26.5867 20.4C26.6667 18.6667 26.6667 13.3334 26.5867 11.6001V11.6401ZM24.32 22.3067C24.139 22.7654 23.8658 23.1818 23.5171 23.5304C23.1684 23.8791 22.752 24.1523 22.2934 24.3334C20.2235 24.7519 18.1075 24.8954 16 24.76C13.8971 24.8955 11.7854 24.752 9.72006 24.3334C9.26149 24.1523 8.84497 23.8791 8.49635 23.5304C8.14773 23.1818 7.87443 22.7654 7.69339 22.3067C7.13339 20.8934 7.25339 17.56 7.25339 16.0134C7.25339 14.4667 7.13339 11.1201 7.69339 9.72006C7.86933 9.25695 8.14067 8.83602 8.48982 8.48457C8.83897 8.13313 9.25811 7.85902 9.72006 7.68006C11.7854 7.26137 13.8971 7.1179 16 7.25339C18.1075 7.11813 20.2235 7.26159 22.2934 7.68006C22.752 7.8611 23.1684 8.13439 23.5171 8.48302C23.8658 8.83163 24.139 9.24815 24.32 9.70673C24.88 11.1201 24.7467 14.4534 24.7467 16C24.7467 17.5467 24.88 20.8934 24.32 22.2934V22.3067Z" fill="black"/>
</svg>
